<svg width="420" height="422" viewBox="0 0 420 422" fill="none" xmlns="http://www.w3.org/2000/svg">
<path d="M359.627 204.955C365.356 197.966 360.698 184.707 345.804 165.407C332.261 147.874 311.837 127.576 288.288 108.246C264.739 88.9158 240.829 72.8409 220.956 62.9663C199.09 52.1032 185.097 50.1063 179.377 57.0455C175.661 61.5285 176.312 68.6874 181.26 78.4122C184.363 84.2554 187.965 89.8207 192.028 95.0463V95.1461L192.219 95.226L193.22 96.5839C206.763 114.117 227.187 134.415 250.736 153.745C274.285 173.075 298.194 189.15 318.068 199.024C339.894 209.897 353.887 211.894 359.627 204.955ZM329.406 196.538C315.203 178.197 293.567 156.461 271.45 138.319C244.655 116.353 217.551 98.6607 196.666 89.5449C189.754 80.0996 181.15 65.8817 184.786 61.4786C188.793 56.6162 207.444 64.0546 217.841 69.2265C237.243 78.8615 260.682 94.6469 283.841 113.637C306.999 132.628 327.023 152.577 340.255 169.68C344.574 175.211 348.404 181.103 351.703 187.293C354.618 193.014 356.161 198.166 354.228 200.512C351.123 204.256 339.383 200.712 329.366 196.538H329.406Z" fill="black"/>
<path d="M295.318 409.558L412.806 249.691C425.262 234.544 421.457 207.936 402.058 174.754C383.269 142.57 351.944 107.59 313.887 76.2357C275.83 44.8819 235.465 20.8619 200.264 8.59212C163.995 -4.06733 137.145 -2.69843 124.689 12.4389L7.20087 172.306C-3.96661 185.864 -2.06882 208.615 12.365 237.062C14.0531 240.389 15.9011 243.786 17.9388 247.263C36.7278 279.436 68.0527 314.427 106.12 345.771C144.187 377.115 184.542 401.145 219.723 413.425C256.012 426.064 282.852 424.695 295.318 409.558ZM130.083 16.8853C140.392 4.3557 165.134 3.74619 198.007 15.1867C232.428 27.1767 272.014 50.797 309.462 81.6313C346.91 112.466 377.656 146.797 396.055 178.291C397.993 181.621 399.758 184.858 401.349 188.003C414.335 213.561 416.612 234.104 407.432 245.265C397.124 257.794 372.371 258.414 339.508 246.953C305.087 234.963 265.501 211.363 228.063 180.519C190.625 149.674 159.86 115.353 141.47 83.8694C123.91 53.8444 119.815 29.4347 130.083 16.9052V16.8853ZM221.98 406.79C187.559 394.8 147.973 371.18 110.535 340.345C73.097 309.511 42.3215 275.19 23.9321 243.696C6.39178 213.651 2.23631 189.242 12.5647 176.752L117.537 32.1225C116.828 44.4822 120.963 59.7894 129.813 77.2349C131.498 80.5655 133.353 83.9626 135.377 87.4264C154.176 119.61 185.501 154.6 223.558 185.944C261.616 217.288 301.98 241.328 337.151 253.588C360.894 261.861 380.572 264.149 394.846 260.492L289.874 405.122C279.635 417.641 254.843 418.261 222.02 406.81L221.98 406.79Z" fill="black"/>
<path d="M407.428 245.133C416.624 233.977 414.332 213.444 401.334 187.896C399.733 184.727 397.965 181.491 396.03 178.189C377.599 146.709 346.799 112.393 309.285 81.5719C271.77 50.7513 232.115 27.1714 197.632 15.1567C164.731 3.72131 139.945 4.33048 129.589 16.8545C119.232 29.3785 123.405 53.8073 140.986 83.7691C159.408 115.239 190.208 149.545 227.732 180.376C265.256 211.206 304.892 234.786 339.374 246.781C372.305 258.316 397.101 257.657 407.428 245.133ZM317.149 198.972C297.297 189.095 273.411 173.005 249.886 153.68C226.361 134.354 205.958 114.04 192.429 96.5028L191.429 95.1446L191.238 95.0646V94.9648C187.18 89.7377 183.581 84.1708 180.482 78.3261C175.538 68.5985 174.888 61.4376 178.6 56.9533C184.314 49.9622 198.293 51.9597 220.137 62.8758C239.99 72.7532 263.875 88.8426 287.4 108.168C310.925 127.493 331.329 147.807 344.857 165.345C359.737 184.65 364.39 197.963 358.666 204.904C352.943 211.846 338.984 209.848 317.149 198.972Z" fill="#2FFF2F"/>
<path d="M329.345 196.452C315.154 178.136 293.539 156.43 271.443 138.313C244.674 116.377 217.595 98.709 196.73 89.6058C189.825 80.1735 181.229 65.9751 184.862 61.5781C188.865 56.7223 207.498 64.1505 217.885 69.3154C237.269 78.9371 260.686 94.7008 283.822 113.665C306.959 132.629 326.963 152.551 340.182 169.631C344.497 175.154 348.324 181.039 351.62 187.219C354.532 192.932 356.074 198.077 354.142 200.42C351.08 204.159 339.352 200.62 329.345 196.452Z" fill="black"/>
<path d="M222.071 406.832C187.627 394.837 148.037 371.206 110.576 340.358C73.114 309.511 42.3474 275.174 23.9413 243.667C6.40464 213.608 2.24766 189.198 12.5698 176.693L117.58 32C116.881 44.3651 121.008 59.6791 129.871 77.1422C131.556 80.4743 133.412 83.8696 135.437 87.3282C154.243 119.526 185.569 154.532 223.66 185.889C261.751 217.247 302.1 241.298 337.294 253.563C361.026 261.849 380.721 264.129 395 260.48L290 405.133C279.708 417.668 254.916 418.288 222.071 406.832Z" fill="#2FFF2F"/>
</svg>
