<svg width="439" height="475" viewBox="0 0 439 475" fill="none" xmlns="http://www.w3.org/2000/svg">
<path d="M171.515 72.2956L170.514 72.7359L0 375.297L99.0316 475L270.946 404.445L439 100.373L342.529 2.31146L341.169 0L171.515 72.2956ZM262.384 400.383L100.652 466.755L10.6235 375.987L172.795 309.325L262.384 400.383ZM12.9641 367.472L175.306 78.2894L331.166 11.8775L171.255 302.391L12.9641 367.472ZM430.197 101.414L267.855 395.95L178.057 304.642L340.358 10.0964L430.197 101.414Z" fill="black"/>
<path d="M331 12L171.205 302.853L13 368L175.244 78.4995L331 12Z" fill="#FFFF00"/>
<path d="M173.339 309L263 399.809L101.102 466L11 375.48L173.339 309Z" fill="#FFFF00"/>
<path d="M340.237 10L430 101.332L267.763 396L178 304.658L340.237 10Z" fill="#FFFF00"/>
</svg>
