<svg width="399" height="398" viewBox="0 0 399 398" fill="none" xmlns="http://www.w3.org/2000/svg">
<path d="M196.645 0.0038237C157.37 0.492606 119.117 12.5724 86.6987 34.7228C54.2804 56.8732 29.145 88.1055 14.4537 124.49C-0.237526 160.874 -3.82775 200.785 4.1345 239.202C12.0968 277.62 31.2553 312.827 59.2011 340.395C87.1469 367.963 122.631 386.661 161.189 394.135C199.747 401.609 239.658 397.526 275.899 382.4C312.14 367.274 343.092 341.781 364.863 309.127C386.634 276.473 398.25 238.118 398.251 198.886C397.918 145.809 376.49 95.0388 338.682 57.7418C300.874 20.4449 249.783 -0.324044 196.645 0.0038237Z" fill="#00EDBE"/>
<path d="M295.358 124.75C294.819 114.805 297.247 104.924 302.336 96.359H139.82C138.364 96.3537 136.92 96.6351 135.573 97.187C134.225 97.7389 132.999 98.5505 131.966 99.5755C130.932 100.601 130.111 101.819 129.549 103.161C128.987 104.503 128.695 105.942 128.689 107.397V142.096C128.695 143.55 128.987 144.99 129.549 146.332C130.111 147.674 130.932 148.892 131.966 149.917C132.999 150.942 134.225 151.754 135.573 152.306C136.92 152.858 138.364 153.139 139.82 153.134H302.336C297.247 144.569 294.819 134.688 295.358 124.743" fill="#141BEB"/>
<path d="M103.364 198.85C103.894 208.796 101.456 218.675 96.3589 227.235H258.875C260.332 227.24 261.775 226.958 263.123 226.407C264.47 225.855 265.696 225.043 266.729 224.018C267.763 222.993 268.584 221.775 269.146 220.433C269.709 219.091 270.001 217.651 270.006 216.196V181.498C270.001 180.043 269.709 178.604 269.146 177.262C268.584 175.92 267.763 174.701 266.729 173.676C265.696 172.651 264.47 171.84 263.123 171.288C261.775 170.736 260.332 170.454 258.875 170.46H96.3589C101.448 179.024 103.877 188.905 103.337 198.85" fill="#141BEB"/>
<path d="M295.358 272.945C294.819 263 297.247 253.119 302.336 244.554H139.82C138.364 244.549 136.92 244.83 135.573 245.382C134.225 245.934 132.999 246.746 131.966 247.771C130.932 248.796 130.111 250.014 129.549 251.356C128.987 252.698 128.695 254.138 128.689 255.592V290.291C128.695 291.745 128.987 293.185 129.549 294.527C130.111 295.869 130.932 297.088 131.966 298.113C132.999 299.138 134.225 299.949 135.573 300.501C136.92 301.053 138.364 301.334 139.82 301.329H302.336C297.247 292.764 294.819 282.883 295.358 272.938" fill="#141BEB"/>
</svg>
